<svg width="20" height="16" viewBox="0 0 20 16" fill="none" xmlns="http://www.w3.org/2000/svg">
<path d="M18.4471 8.04271L17.7236 11.0788L19.2394 11.2691L19.9631 8.23293L18.4471 8.04271ZM11.277 14.8837H6.50935V16H11.277V14.8837ZM5.57464 14.2605L4.74169 7.27055L3.20901 7.3667L4.04196 14.3566L5.57464 14.2605ZM17.7236 11.0788C17.2038 13.2597 14.4936 14.8837 11.277 14.8837V16C15.2012 16 18.5853 14.0138 19.2394 11.2691L17.7236 11.0788ZM11.2871 2.86522L10.6074 5.87514L12.1256 6.05563L12.8053 3.04572L11.2871 2.86522ZM5.06466 6.6944L6.54024 5.77179L5.53599 4.92617L4.06041 5.8488L5.06466 6.6944ZM9.2248 2.7699L9.71268 1.40518L8.2236 1.12489L7.73569 2.48961L9.2248 2.7699ZM10.4496 1.13742L10.5983 1.17207L11.0687 0.109295L10.9201 0.074638L10.4496 1.13742ZM8.48585 4.14213C8.80573 3.70752 9.05424 3.24717 9.2248 2.7699L7.73569 2.48961C7.59585 2.88079 7.39202 3.25874 7.12888 3.61618L8.48585 4.14213ZM10.5983 1.17207C10.9125 1.24533 11.1357 1.42146 11.209 1.62667L12.6981 1.34639C12.4874 0.756975 11.8657 0.295051 11.0687 0.109295L10.5983 1.17207ZM9.71268 1.40518C9.74857 1.3047 9.84857 1.21237 9.99995 1.15947L9.33207 0.153857C8.78645 0.344621 8.37662 0.696755 8.2236 1.12489L9.71268 1.40518ZM9.99995 1.15947C10.1381 1.11115 10.3008 1.10274 10.4496 1.13742L10.9201 0.074638C10.3973 -0.0472225 9.82703 -0.0192038 9.33207 0.153857L9.99995 1.15947ZM12.209 7.24405H17.5227V6.12777H12.209V7.24405ZM12.8053 3.04572C12.933 2.48004 12.8965 1.90123 12.6981 1.34639L11.209 1.62667C11.3536 2.03105 11.3802 2.45292 11.2871 2.86522L12.8053 3.04572ZM6.50935 14.8837C6.0233 14.8837 5.61672 14.6136 5.57464 14.2605L4.04196 14.3566C4.15268 15.2857 5.2236 16 6.50935 16V14.8837ZM6.54024 5.77179C7.2375 5.33581 7.98905 4.81687 8.48585 4.14213L7.12888 3.61618C6.77363 4.09873 6.20797 4.50599 5.53599 4.92617L6.54024 5.77179ZM19.9631 8.23293C20.2249 7.13414 19.0604 6.12777 17.5227 6.12777V7.24405C18.1039 7.24405 18.5467 7.62485 18.4471 8.04271L19.9631 8.23293ZM10.6074 5.87514C10.4457 6.59171 11.2069 7.24405 12.209 7.24405V6.12777C12.1578 6.12777 12.1169 6.09414 12.1256 6.05563L10.6074 5.87514ZM4.74169 7.27055C4.71562 7.05176 4.83597 6.83743 5.06466 6.6944L4.06041 5.8488C3.45702 6.22609 3.14038 6.79092 3.20901 7.3667L4.74169 7.27055Z" fill="#1C274C"/>
<path opacity="0.5" d="M0.769203 6.68585L1.53554 6.63778C1.50006 6.33997 1.14758 6.11533 0.736045 6.12821C0.324501 6.1411 0 6.38694 0 6.68585H0.769203ZM2.53202 14.9998L1.53554 6.63778L0.00286141 6.73393L0.999338 15.096L2.53202 14.9998ZM1.53841 15.0792V6.68585H0V15.0792H1.53841ZM0.999338 15.096C0.98581 14.9825 1.10915 14.8837 1.26837 14.8837V15.9999C2.01293 15.9999 2.59603 15.537 2.53202 14.9998L0.999338 15.096ZM1.26837 14.8837C1.41833 14.8837 1.53841 14.9718 1.53841 15.0792H0C0 15.5871 0.567046 15.9999 1.26837 15.9999V14.8837Z" fill="#1C274C"/>
</svg>
