<svg width="27" height="31" viewBox="0 0 27 31" fill="#374957" xmlns="http://www.w3.org/2000/svg">
  <path d="M22.3387 9.71424L10.1084 2.84347C1.87285 -1.75919 -1.66768 2.17889 2.23585 11.6L3.96132 15.7573L1.9838 19.9748C-2.49083 29.5319 0.826002 33.3704 9.33677 28.4841L21.9921 21.2326C27.6628 17.9634 27.8288 12.7905 22.3387 9.71424ZM16.9037 16.485L9.02129 16.6365C8.71099 16.6415 8.4463 16.5051 8.25648 16.2855C8.06666 16.0658 7.95172 15.7629 7.96231 15.411C7.98278 14.7307 8.4962 14.1596 9.09612 14.1498L16.9785 13.9984C17.5785 13.9886 18.058 14.5436 18.0375 15.2239C18.0171 15.9042 17.5036 16.4753 16.9037 16.485Z" fill="#374957"/>
</svg>
