<svg width="25" height="25" viewBox="0 0 25 25" fill="none" xmlns="http://www.w3.org/2000/svg">
<path d="M12.4042 0.318297C12.4328 0.223377 12.5672 0.223376 12.5958 0.318297L15.285 9.25708C15.2977 9.29934 15.3366 9.32827 15.3808 9.32827H24.0988C24.1938 9.32827 24.2352 9.4483 24.1605 9.50694L17.0946 15.0513C17.0622 15.0767 17.0487 15.1194 17.0606 15.1588L19.7563 24.1193C19.7845 24.2128 19.6756 24.287 19.5988 24.2268L12.5617 18.705C12.5255 18.6765 12.4745 18.6765 12.4383 18.705L5.40117 24.2268C5.32435 24.287 5.21555 24.2128 5.24368 24.1193L7.93945 15.1588C7.95131 15.1194 7.9378 15.0767 7.90542 15.0513L0.839497 9.50694C0.764759 9.4483 0.806229 9.32827 0.901229 9.32827H9.61923C9.66336 9.32827 9.70228 9.29934 9.71499 9.25708L12.4042 0.318297Z" fill="#374957"/>
</svg>
