<svg width="20" height="23" viewBox="0 0 20 23" fill="none" xmlns="http://www.w3.org/2000/svg">
<path d="M17.1111 4.94444C18.2928 4.94815 19.25 6.05571 19.25 7.42408V19.7704C19.2501 20.0961 19.1947 20.4186 19.087 20.7194C18.9792 21.0204 18.8213 21.2937 18.622 21.5242C18.4227 21.7544 18.1862 21.937 17.9258 22.0616C17.6655 22.1861 17.3865 22.2501 17.1047 22.25H6.42308C5.85513 22.2504 5.31027 21.9902 4.90808 21.5268C4.50588 21.0632 4.27919 20.4343 4.27778 19.7778H16.0417C16.6352 19.7778 17.1111 19.224 17.1111 18.5417V4.94444ZM2.61034e-07 2.47964C2.61034e-07 1.11003 0.959292 0 2.14531 0H12.8269C14.0119 0 14.9722 1.10879 14.9722 2.47964V14.8259C14.9723 15.1516 14.9169 15.4741 14.8092 15.775C14.7014 16.076 14.5435 16.3493 14.3442 16.5797C14.1449 16.81 13.9084 16.9926 13.648 17.1172C13.3877 17.2416 13.1087 17.3057 12.8269 17.3056H2.14531C1.86354 17.3057 1.58451 17.2416 1.32417 17.1172C1.06382 16.9926 0.827269 16.81 0.628031 16.5797C0.428794 16.3493 0.270773 16.076 0.163016 15.775C0.0552585 15.4741 -0.000138767 15.1516 2.61034e-07 14.8259V2.47964ZM2.13889 2.47222V14.8333H12.8333V2.47222H2.13889Z" fill="#374957"/>
<path fill-rule="evenodd" clip-rule="evenodd" d="M7.03298 4.66285L6.16245 6.81739L4.1658 7.17216C4.07506 7.18976 3.99018 7.23563 3.92032 7.30484C3.85045 7.37405 3.79824 7.46398 3.7693 7.56493C3.74038 7.6659 3.73582 7.77407 3.75612 7.8778C3.77643 7.98153 3.82082 8.07689 3.88454 8.15363L5.34433 9.89037L5.00532 12.307C4.98871 12.4143 4.99885 12.5249 5.03455 12.6258C5.07025 12.7266 5.13005 12.8138 5.20697 12.8769C5.28388 12.94 5.37473 12.9766 5.46893 12.9823C5.56313 12.9878 5.65678 12.9625 5.73895 12.9089L7.48536 11.789L9.23176 12.9089C9.31389 12.9625 9.40758 12.9878 9.50179 12.9823C9.59601 12.9766 9.68681 12.94 9.7637 12.8769C9.8407 12.8138 9.90048 12.7266 9.9362 12.6258C9.97192 12.5249 9.98198 12.4143 9.9654 12.307L9.62638 9.89037L11.0851 8.15363C11.1499 8.07742 11.1954 7.98202 11.2163 7.87791C11.2373 7.77381 11.233 7.66504 11.2039 7.56357C11.1748 7.46211 11.1221 7.37189 11.0515 7.30283C10.9809 7.23377 10.8952 7.18855 10.8038 7.17216L8.80826 6.81739L7.93666 4.66285C7.89656 4.56351 7.83282 4.47939 7.75293 4.4203C7.67304 4.36122 7.58022 4.32958 7.48536 4.3291C7.2982 4.3291 7.11854 4.45271 7.03298 4.66285Z" fill="#374957"/>
</svg>
