<svg width="56" height="335" viewBox="0 0 56 335" fill="none" xmlns="http://www.w3.org/2000/svg">
<path d="M28 0V335" stroke="#374957"/>
<circle cx="28" cy="57.5" r="27.5" fill="white" stroke="#374957"/>
<circle cx="28" cy="167" r="27.5" fill="white" stroke="#374957"/>
<circle cx="28" cy="271.5" r="27.5" fill="white" stroke="#374957"/>
<path d="M28.4964 53.0455V62.5H27.0653V54.4766H27.0099L24.7479 55.9538V54.5874L27.1069 53.0455H28.4964Z" fill="black"/>
<path d="M25.9094 174V172.966L29.1087 169.651C29.4503 169.291 29.7319 168.976 29.9535 168.705C30.1781 168.431 30.3459 168.171 30.4567 167.925C30.5675 167.679 30.6229 167.417 30.6229 167.14C30.6229 166.826 30.549 166.555 30.4013 166.327C30.2536 166.097 30.052 165.92 29.7965 165.797C29.5411 165.67 29.2533 165.607 28.9332 165.607C28.5947 165.607 28.2992 165.676 28.0469 165.815C27.7945 165.953 27.6006 166.149 27.4652 166.401C27.3298 166.654 27.2621 166.949 27.2621 167.288H25.9002C25.9002 166.712 26.0326 166.209 26.2972 165.778C26.5619 165.347 26.9251 165.013 27.3867 164.776C27.8484 164.536 28.3731 164.416 28.9609 164.416C29.5549 164.416 30.0781 164.535 30.5305 164.772C30.986 165.006 31.3415 165.326 31.5969 165.732C31.8524 166.135 31.9801 166.591 31.9801 167.098C31.9801 167.449 31.9139 167.792 31.7816 168.128C31.6523 168.463 31.4261 168.837 31.103 169.25C30.7798 169.659 30.3305 170.156 29.755 170.741L27.8761 172.707V172.777H32.1325V174H25.9094Z" fill="black"/>
<path d="M28.201 277.629C27.567 277.629 27.0007 277.52 26.5021 277.301C26.0066 277.083 25.6142 276.78 25.3249 276.392C25.0387 276.001 24.8848 275.549 24.8633 275.035H26.3129C26.3313 275.315 26.4252 275.558 26.5945 275.764C26.7668 275.967 26.9915 276.124 27.2685 276.235C27.5455 276.346 27.8532 276.401 28.1918 276.401C28.5642 276.401 28.8935 276.337 29.1797 276.207C29.469 276.078 29.6952 275.898 29.8583 275.667C30.0214 275.433 30.103 275.164 30.103 274.859C30.103 274.542 30.0214 274.264 29.8583 274.024C29.6983 273.781 29.4628 273.59 29.152 273.451C28.8442 273.313 28.4718 273.244 28.0348 273.244H27.2362V272.08H28.0348C28.3857 272.08 28.6934 272.017 28.9581 271.891C29.2259 271.765 29.4351 271.589 29.5859 271.365C29.7367 271.137 29.8121 270.871 29.8121 270.566C29.8121 270.274 29.746 270.02 29.6136 269.804C29.4844 269.586 29.2997 269.415 29.0597 269.292C28.8227 269.169 28.5426 269.107 28.2195 269.107C27.9117 269.107 27.6239 269.164 27.3562 269.278C27.0915 269.389 26.8761 269.549 26.7099 269.758C26.5437 269.964 26.4544 270.212 26.4421 270.501H25.0618C25.0772 269.991 25.228 269.541 25.5142 269.153C25.8035 268.766 26.1851 268.462 26.6591 268.244C27.133 268.025 27.6593 267.916 28.2379 267.916C28.8442 267.916 29.3674 268.035 29.8075 268.272C30.2507 268.506 30.5923 268.818 30.8324 269.209C31.0755 269.6 31.1955 270.027 31.1925 270.492C31.1955 271.022 31.0478 271.471 30.7493 271.84C30.4538 272.21 30.0599 272.457 29.5675 272.583V272.657C30.1953 272.753 30.6816 273.002 31.0263 273.405C31.3741 273.808 31.5464 274.308 31.5433 274.906C31.5464 275.426 31.4018 275.892 31.1094 276.304C30.8201 276.717 30.4246 277.041 29.9229 277.278C29.4213 277.512 28.8473 277.629 28.201 277.629Z" fill="black"/>
</svg>